<svg width="52.591" height="8.514" viewBox="0 0 13.915 2.253">
  <path fill="#8c8c8c" d="M0 .784h13.915v.685H0z"></path>
  <path fill="#d9b477" d="M4.875.102c-.149-.102-.15-.1-.568-.1h-.823c-.163 0-.297.108-.297.24v1.771c0 .13.134.238.297.238h.823c.417 0 .42 0 .568-.099.147-.167.405-.09.598-.11h2.968c.205.017.31-.032.6.11.273.1.265.1.567.1h.822c.164 0 .298-.108.298-.239V.241c0-.13-.134-.238-.298-.238h-.822C9.306.003 9.303 0 9.04.1c-.242.138-.405.09-.6.11H5.474c-.204-.017-.4.054-.598-.11z"></path>
  <path fill="transparent" d="M4.327 1.127V0l.184.007c.2.008.235.016.327.075L4.9.12l-.003 1.008-.003 1.009-.064.038c-.091.054-.124.062-.325.07l-.178.007z"></path>
  <path fill="transparent" d="M5.404.212h.61v1.832h-.61z"></path>
  <path fill="transparent" d="M6.498.212h.61v1.832h-.61z"></path>
  <path fill="transparent" d="M7.6 1.127V.214h.597V2.04h-.596z"></path>
  <path fill="transparent" d="M9.65,0V1.127l0,1.125H10.247V0Z"></path>
</svg>