<svg version="1" xmlns="http://www.w3.org/2000/svg" width="221.333" height="221.333" viewBox="0 0 166.000000 166.000000"><path d="M45.5 25.3c1.4 2.9 2.7 6.7 3.1 8.4.5 2.6.3 3.1-1.8 3.6-1.2.4-3.3.7-4.5.7-1.8 0-2.3.7-2.8 3.7-1.3 8.3-2 9.7-6 12.1-2.2 1.2-4.6 2.6-5.3 3.1-1.1.6-1.1 1.7.2 6.1 2.1 7.1 2.1 7-2 12.4-3.8 5-3.8 4.9 1.2 11.1l3.3 4-1.3 6.3-1.4 6.2 5.3 3c2.9 1.6 5.6 3 6.1 3s3.2-2 6.1-4.5c2.8-2.5 5.4-4.5 5.8-4.5 1.5 0-.2 15.5-1.9 18.9-1.1 2-1.4 3.7-.9 4.2.5.5 3.7 1.5 7 2.2 7.4 1.5 9.4 3.2 13.3 11.1 3.3 6.5 9.3 11.6 13.7 11.6 5.2 0 10.6-4.4 13.4-11.1 2.9-6.7 7.3-10.3 14.2-11.8 3.2-.7 6-1.8 6.3-2.5.3-.7-.2-2.8-1.1-4.8-.8-2-1.8-6.9-2.1-10.7-.8-8.7 0-9 7.4-2.5l5.2 4.5 5.2-2.8c5.7-3.1 5.9-3.6 4.4-11.9-.7-3.7-.4-4.4 3.2-8.9l3.9-4.9-3.5-5.3-3.5-5.3 1.6-6 1.5-6.1-4-2.5c-2.2-1.4-4.6-2.8-5.3-3-.8-.3-1.7-2.7-2-5.2-1-7.4-2-9.2-5.4-9.2-5.8 0-6.1-.5-4.4-6.3.8-2.9 2.2-6.4 2.9-8 1-1.8 1.1-2.7.3-2.7-1.5 0-6.6 5.6-8.5 9.3l-1.6 2.9-2.4-3.5-2.3-3.5-6.2 1.9-6.2 2-5.4-3.6L83 23l-5.4 3.4-5.3 3.5-6.2-1.9-6.1-1.8-2.4 3.5c-2.2 3.1-2.5 3.3-3 1.5-.8-2.5-8.9-11.2-10.4-11.2-.6 0-.1 2.2 1.3 5.3zm11.4 13.9c.6 2.4 1.6 7.4 2.1 11.2 1.7 10.7 5.6 17.1 13.9 22.6l2.2 1.5-3.1 4.3c-2.8 3.9-11.3 9.2-12.6 7.9-.2-.2-3-6.4-6.2-13.8-5.8-13.3-5.8-13.4-4.5-17.9.8-2.5 1.5-7.3 1.6-10.8.1-4.9.5-6.3 1.9-6.8 1-.3 1.8-1 1.8-1.5 0-2.6 1.9-.4 2.9 3.3zm56.6-2.6c2.2 1.4 2.5 2.3 2.5 7.9 0 3.4.7 8.2 1.5 10.6l1.6 4.4-5.7 13c-3.2 7.1-6.1 13.4-6.5 13.9-1.9 2.1-11.8-4.3-14.4-9.3-1.3-2.6-1.2-2.8 3.3-6.2 6.2-4.6 9.8-11.8 11.7-23.5 1.4-9 2.3-12.4 3.1-12.4.3 0 1.6.7 2.9 1.6zM74.5 90c2.1 4.1 2 13.9-.2 14.7-2.2.9-8.3-6.3-8.3-9.8 0-3 3.4-7.9 5.5-7.9.8 0 2.1 1.3 3 3zm23.5-.8c3.1 3.3 2.6 7.8-1.3 12.3-4.8 5.5-6.7 4.5-6.7-3.7 0-9.6 3.5-13.4 8-8.6zm-12.9 15.5c.5 1.5.9 4.3.7 6.2-.3 3.1-.7 3.6-2.8 3.6-3 0-3.6-2.5-2-8.4 1.3-4.8 2.6-5.2 4.1-1.4zM80 125.2c0 .5-.4.8-1 .8-.5 0-1-1-1-2.3 0-1.8.2-1.9 1-.7.5.8 1 1.8 1 2.2zm7.6.5c-1 1-1.9-.5-1-1.8.6-1.1.8-1.1 1.2 0 .2.7.1 1.5-.2 1.8z"/></svg>