<?xml version="1.0" encoding="UTF-8" standalone="no"?><!DOCTYPE svg PUBLIC "-//W3C//DTD SVG 1.1//EN" "http://www.w3.org/Graphics/SVG/1.1/DTD/svg11.dtd"><!-- Generated by graphviz version 2.40.1 (20161225.0304)
 --><!-- Title: ZigbeeNetwork Pages: 1 --><svg xmlns="http://www.w3.org/2000/svg" xmlns:xlink="http://www.w3.org/1999/xlink" width="1141pt" height="704pt" viewBox="0.00 0.00 1141.00 704.00">
<g id="graph0" class="graph" transform="scale(1 1) rotate(0) translate(4 700)">
<title>ZigbeeNetwork</title>
<polygon fill="#ffffff" stroke="transparent" points="-4,4 -4,-700 1137,-700 1137,4 -4,4"/>
<!-- 0x00124b0018e2f44a -->
<g id="node1" class="node">
<title>0x00124b0018e2f44a</title>
<polygon fill="#e04e5d" stroke="#000000" stroke-width="2" points="577.2952,-416.2717 577.2952,-452.2717 660.9488,-452.2717 660.9488,-416.2717 577.2952,-416.2717"/>
<text text-anchor="middle" x="619.122" y="-430.1717" font-family="Times,serif" font-size="14.00" fill="#ffffff">Coordinator</text>
</g>
<!-- 0x00124b0009ffadc4 -->
<g id="node2" class="node">
<title>0x00124b0009ffadc4</title>
<path fill="#4ea3e0" stroke="#000000" d="M382.6598,-383.3691C382.6598,-383.3691 495.183,-383.3691 495.183,-383.3691 501.183,-383.3691 507.183,-389.3691 507.183,-395.3691 507.183,-395.3691 507.183,-420.9691 507.183,-420.9691 507.183,-426.9691 501.183,-432.9691 495.183,-432.9691 495.183,-432.9691 382.6598,-432.9691 382.6598,-432.9691 376.6598,-432.9691 370.6598,-426.9691 370.6598,-420.9691 370.6598,-420.9691 370.6598,-395.3691 370.6598,-395.3691 370.6598,-389.3691 376.6598,-383.3691 382.6598,-383.3691"/>
<text text-anchor="middle" x="438.9214" y="-416.3691" font-family="Times,serif" font-size="14.00" fill="#ffffff">cc2530_router_1</text>
<polyline fill="none" stroke="#000000" points="370.6598,-408.1691 507.183,-408.1691 "/>
<text text-anchor="middle" x="438.9214" y="-391.5691" font-family="Times,serif" font-size="14.00" fill="#ffffff">Custom device router</text>
</g>
<!-- 0x00124b0018e2f44a&#45;&gt;0x00124b0009ffadc4 -->
<g id="edge1" class="edge">
<title>0x00124b0018e2f44a-&gt;0x00124b0009ffadc4</title>
<path fill="none" stroke="#994444" stroke-width=".5" d="M576.873,-428.1518C559.0827,-425.5748 537.7862,-422.49 517.3105,-419.524"/>
<polygon fill="#994444" stroke="#994444" stroke-width=".5" points="517.7421,-416.0501 507.3436,-418.0803 516.7386,-422.9778 517.7421,-416.0501"/>
<text text-anchor="middle" x="534.9026" y="-427.2862" font-family="Times,serif" font-size="14.00" fill="#000000">55</text>
</g>
<!-- 0x00124b0009ffadc4&#45;&gt;0x00124b0018e2f44a -->
<g id="edge17" class="edge">
<title>0x00124b0009ffadc4-&gt;0x00124b0018e2f44a</title>
<path fill="none" stroke="#994444" stroke-width=".5" d="M507.3045,-418.0746C527.1304,-420.9464 548.4481,-424.0344 567.0985,-426.736"/>
<polygon fill="#994444" stroke="#994444" stroke-width=".5" points="566.7605,-430.2234 577.159,-428.1933 567.764,-423.2957 566.7605,-430.2234"/>
<text text-anchor="middle" x="549.3822" y="-427.3557" font-family="Times,serif" font-size="14.00" fill="#000000">59</text>
</g>
<!-- 0x00124b000a52ce9c -->
<g id="node6" class="node">
<title>0x00124b000a52ce9c</title>
<path fill="#4ea3e0" stroke="#000000" d="M600.8416,-245.3441C600.8416,-245.3441 713.3648,-245.3441 713.3648,-245.3441 719.3648,-245.3441 725.3648,-251.3441 725.3648,-257.3441 725.3648,-257.3441 725.3648,-282.9441 725.3648,-282.9441 725.3648,-288.9441 719.3648,-294.9441 713.3648,-294.9441 713.3648,-294.9441 600.8416,-294.9441 600.8416,-294.9441 594.8416,-294.9441 588.8416,-288.9441 588.8416,-282.9441 588.8416,-282.9441 588.8416,-257.3441 588.8416,-257.3441 588.8416,-251.3441 594.8416,-245.3441 600.8416,-245.3441"/>
<text text-anchor="middle" x="657.1032" y="-278.3441" font-family="Times,serif" font-size="14.00" fill="#ffffff">cc2530_router_2</text>
<polyline fill="none" stroke="#000000" points="588.8416,-270.1441 725.3648,-270.1441 "/>
<text text-anchor="middle" x="657.1032" y="-253.5441" font-family="Times,serif" font-size="14.00" fill="#ffffff">Custom device router</text>
</g>
<!-- 0x00124b0009ffadc4&#45;&gt;0x00124b000a52ce9c -->
<g id="edge18" class="edge">
<title>0x00124b0009ffadc4-&gt;0x00124b000a52ce9c</title>
<path fill="none" stroke="#994444" stroke-width=".5" d="M494.906,-383.2246C502.3935,-379.4473 509.8834,-375.433 516.8417,-371.325 552.5755,-350.2289 590.6055,-322.4219 618.0381,-301.2982"/>
<polygon fill="#994444" stroke="#994444" stroke-width=".5" points="620.439,-303.8655 626.1971,-294.9719 616.1497,-298.3335 620.439,-303.8655"/>
<text text-anchor="middle" x="555.7396" y="-329.1621" font-family="Times,serif" font-size="14.00" fill="#000000">76</text>
</g>
<!-- 0xec1bbdfffeb4af7e -->
<g id="node3" class="node">
<title>0xec1bbdfffeb4af7e</title>
<path fill="#fff8ce" stroke="#000000" stroke-dasharray="5,2" d="M438.3419,-253.8794C438.3419,-253.8794 567.1975,-253.8794 567.1975,-253.8794 573.1975,-253.8794 579.1975,-259.8794 579.1975,-265.8794 579.1975,-265.8794 579.1975,-291.4794 579.1975,-291.4794 579.1975,-297.4794 573.1975,-303.4794 567.1975,-303.4794 567.1975,-303.4794 438.3419,-303.4794 438.3419,-303.4794 432.3419,-303.4794 426.3419,-297.4794 426.3419,-291.4794 426.3419,-291.4794 426.3419,-265.8794 426.3419,-265.8794 426.3419,-259.8794 432.3419,-253.8794 438.3419,-253.8794"/>
<text text-anchor="middle" x="502.7697" y="-286.8794" font-family="Times,serif" font-size="14.00" fill="#000000">tradfri_controller</text>
<polyline fill="none" stroke="#000000" stroke-dasharray="5,2" points="426.3419,-278.6794 579.1975,-278.6794 "/>
<text text-anchor="middle" x="502.7697" y="-262.0794" font-family="Times,serif" font-size="14.00" fill="#000000">IKEA TRADFRI switch</text>
</g>
<!-- 0xec1bbdfffeb4af7e&#45;&gt;0x00124b0018e2f44a -->
<g id="edge2" class="edge">
<title>0xec1bbdfffeb4af7e-&gt;0x00124b0018e2f44a</title>
<path fill="none" stroke="#994444" d="M521.4638,-303.678C542.8627,-332.2938 577.7558,-378.9547 599.5256,-408.0665"/>
<polygon fill="#994444" stroke="#994444" points="596.7715,-410.2279 605.5633,-416.1403 602.3775,-406.0358 596.7715,-410.2279"/>
<text text-anchor="middle" x="556.3334" y="-363.8684" font-family="Times,serif" font-size="14.00" fill="#000000">46</text>
</g>
<!-- 0x00158d000429b1ac -->
<g id="node4" class="node">
<title>0x00158d000429b1ac</title>
<path fill="#fff8ce" stroke="#000000" stroke-dasharray="5,2" d="M320.459,-617.9168C320.459,-617.9168 563.6274,-617.9168 563.6274,-617.9168 569.6274,-617.9168 575.6274,-623.9168 575.6274,-629.9168 575.6274,-629.9168 575.6274,-655.5168 575.6274,-655.5168 575.6274,-661.5168 569.6274,-667.5168 563.6274,-667.5168 563.6274,-667.5168 320.459,-667.5168 320.459,-667.5168 314.459,-667.5168 308.459,-661.5168 308.459,-655.5168 308.459,-655.5168 308.459,-629.9168 308.459,-629.9168 308.459,-623.9168 314.459,-617.9168 320.459,-617.9168"/>
<text text-anchor="middle" x="442.0432" y="-650.9168" font-family="Times,serif" font-size="14.00" fill="#000000">aqara_door</text>
<polyline fill="none" stroke="#000000" stroke-dasharray="5,2" points="308.459,-642.7168 575.6274,-642.7168 "/>
<text text-anchor="middle" x="442.0432" y="-626.1168" font-family="Times,serif" font-size="14.00" fill="#000000">Xiaomi Mijia door &amp; window contact sensor</text>
</g>
<!-- 0x00158d000429b1ac&#45;&gt;0x00124b0018e2f44a -->
<g id="edge3" class="edge">
<title>0x00158d000429b1ac-&gt;0x00124b0018e2f44a</title>
<path fill="none" stroke="#994444" d="M446.1548,-617.6547C452.772,-584.5299 468.6997,-526.0922 503.0829,-489.4103 520.4226,-470.9112 545.2438,-457.9689 567.483,-449.296"/>
<polygon fill="#994444" stroke="#994444" points="568.9871,-452.4716 577.1538,-445.7221 566.5605,-445.9056 568.9871,-452.4716"/>
<text text-anchor="middle" x="496.0892" y="-493.6035" font-family="Times,serif" font-size="14.00" fill="#000000">56</text>
</g>
<!-- 0x00158d0004110f6f -->
<g id="node5" class="node">
<title>0x00158d0004110f6f</title>
<path fill="#fff8ce" stroke="#000000" stroke-dasharray="5,2" d="M518.2829,-492.6103C518.2829,-492.6103 691.8377,-492.6103 691.8377,-492.6103 697.8377,-492.6103 703.8377,-498.6103 703.8377,-504.6103 703.8377,-504.6103 703.8377,-530.2103 703.8377,-530.2103 703.8377,-536.2103 697.8377,-542.2103 691.8377,-542.2103 691.8377,-542.2103 518.2829,-542.2103 518.2829,-542.2103 512.2829,-542.2103 506.2829,-536.2103 506.2829,-530.2103 506.2829,-530.2103 506.2829,-504.6103 506.2829,-504.6103 506.2829,-498.6103 512.2829,-492.6103 518.2829,-492.6103"/>
<text text-anchor="middle" x="605.0603" y="-525.6103" font-family="Times,serif" font-size="14.00" fill="#000000">aqara_motion</text>
<polyline fill="none" stroke="#000000" stroke-dasharray="5,2" points="506.2829,-517.4103 703.8377,-517.4103 "/>
<text text-anchor="middle" x="605.0603" y="-500.8103" font-family="Times,serif" font-size="14.00" fill="#000000">Xiaomi Aqara movement sensor</text>
</g>
<!-- 0x00158d0004110f6f&#45;&gt;0x00124b000a52ce9c -->
<g id="edge4" class="edge">
<title>0x00158d0004110f6f-&gt;0x00124b000a52ce9c</title>
<path fill="none" stroke="#994444" stroke-width=".5" d="M637.3641,-492.4121C647.9878,-482.2353 658.513,-469.544 664.1488,-455.4717 683.8443,-406.293 675.3129,-343.7765 666.702,-305.3806"/>
<polygon fill="#994444" stroke="#994444" stroke-width=".5" points="670.0063,-304.1452 664.2946,-295.2217 663.1949,-305.7594 670.0063,-304.1452"/>
<text text-anchor="middle" x="668.9625" y="-398.7991" font-family="Times,serif" font-size="14.00" fill="#000000">82</text>
</g>
<!-- 0x00124b000a52ce9c&#45;&gt;0x00124b0018e2f44a -->
<g id="edge20" class="edge">
<title>0x00124b000a52ce9c-&gt;0x00124b0018e2f44a</title>
<path fill="none" stroke="#994444" stroke-width=".5" d="M651.3347,-295.0716C644.3989,-325.043 632.7919,-375.2001 625.5676,-406.4184"/>
<polygon fill="#994444" stroke="#994444" stroke-width=".5" points="622.1435,-405.6913 623.2987,-416.223 628.9632,-407.2695 622.1435,-405.6913"/>
<text text-anchor="middle" x="630.3548" y="-359.6825" font-family="Times,serif" font-size="14.00" fill="#000000">71</text>
</g>
<!-- 0x00124b000a52ce9c&#45;&gt;0x00124b0009ffadc4 -->
<g id="edge19" class="edge">
<title>0x00124b000a52ce9c-&gt;0x00124b0009ffadc4</title>
<path fill="none" stroke="#994444" stroke-width=".5" d="M626.1971,-294.9719C598.4984,-316.5969 556.2721,-348.0465 516.8417,-371.325 512.7102,-373.7641 508.3913,-376.1702 503.9968,-378.5132"/>
<polygon fill="#994444" stroke="#994444" stroke-width=".5" points="502.174,-375.5157 494.906,-383.2246 505.395,-381.7307 502.174,-375.5157"/>
<text text-anchor="middle" x="555.3824" y="-346.2083" font-family="Times,serif" font-size="14.00" fill="#000000">51</text>
</g>
<!-- 0xec1bbdfffeaccaf8 -->
<g id="node7" class="node">
<title>0xec1bbdfffeaccaf8</title>
<path fill="#4ea3e0" stroke="#000000" d="M353.7307,-318.525C353.7307,-318.525 501.6417,-318.525 501.6417,-318.525 507.6417,-318.525 513.6417,-324.525 513.6417,-330.525 513.6417,-330.525 513.6417,-356.125 513.6417,-356.125 513.6417,-362.125 507.6417,-368.125 501.6417,-368.125 501.6417,-368.125 353.7307,-368.125 353.7307,-368.125 347.7307,-368.125 341.7307,-362.125 341.7307,-356.125 341.7307,-356.125 341.7307,-330.525 341.7307,-330.525 341.7307,-324.525 347.7307,-318.525 353.7307,-318.525"/>
<text text-anchor="middle" x="427.6862" y="-351.525" font-family="Times,serif" font-size="14.00" fill="#ffffff">tradfri_light</text>
<polyline fill="none" stroke="#000000" points="341.7307,-343.325 513.6417,-343.325 "/>
<text text-anchor="middle" x="427.6862" y="-326.725" font-family="Times,serif" font-size="14.00" fill="#ffffff">IKEA TRADFRI LED bulb</text>
</g>
<!-- 0xec1bbdfffeaccaf8&#45;&gt;0x00124b0018e2f44a -->
<g id="edge5" class="edge">
<title>0xec1bbdfffeaccaf8-&gt;0x00124b0018e2f44a</title>
<path fill="none" stroke="#994444" stroke-width=".5" d="M484.3277,-368.1769C493.0801,-372.1277 501.9945,-376.2158 510.383,-380.1691 531.6243,-390.1796 554.9624,-401.7189 574.5535,-411.5626"/>
<polygon fill="#994444" stroke="#994444" stroke-width=".5" points="573.051,-414.7246 583.5564,-416.099 576.201,-408.4734 573.051,-414.7246"/>
<text text-anchor="middle" x="530.8404" y="-395.855" font-family="Times,serif" font-size="14.00" fill="#000000">0</text>
</g>
<!-- 0x00158d00045cfb70 -->
<g id="node8" class="node">
<title>0x00158d00045cfb70</title>
<path fill="#fff8ce" stroke="#000000" stroke-dasharray="5,2" d="M772.8504,-387.6182C772.8504,-387.6182 1021.0448,-387.6182 1021.0448,-387.6182 1027.0448,-387.6182 1033.0448,-393.6182 1033.0448,-399.6182 1033.0448,-399.6182 1033.0448,-425.2182 1033.0448,-425.2182 1033.0448,-431.2182 1027.0448,-437.2182 1021.0448,-437.2182 1021.0448,-437.2182 772.8504,-437.2182 772.8504,-437.2182 766.8504,-437.2182 760.8504,-431.2182 760.8504,-425.2182 760.8504,-425.2182 760.8504,-399.6182 760.8504,-399.6182 760.8504,-393.6182 766.8504,-387.6182 772.8504,-387.6182"/>
<text text-anchor="middle" x="896.9476" y="-420.6182" font-family="Times,serif" font-size="14.00" fill="#000000">aqara_temp</text>
<polyline fill="none" stroke="#000000" stroke-dasharray="5,2" points="760.8504,-412.4182 1033.0448,-412.4182 "/>
<text text-anchor="middle" x="896.9476" y="-395.8182" font-family="Times,serif" font-size="14.00" fill="#000000">Xiaomi Aqara temp, hum and pressure sensor</text>
</g>
<!-- 0x00158d00045cfb70&#45;&gt;0x00124b0018e2f44a -->
<g id="edge6" class="edge">
<title>0x00158d00045cfb70-&gt;0x00124b0018e2f44a</title>
<path fill="none" stroke="#994444" d="M760.4765,-423.1529C728.6354,-425.6575 696.6231,-428.1756 671.1343,-430.1805"/>
<polygon fill="#994444" stroke="#994444" points="670.6826,-426.7051 660.9879,-430.9786 671.2316,-433.6836 670.6826,-426.7051"/>
<text text-anchor="middle" x="703.9418" y="-431.2493" font-family="Times,serif" font-size="14.00" fill="#000000">99</text>
</g>
<!-- 0x00158d000465f8c7 -->
<g id="node9" class="node">
<title>0x00158d000465f8c7</title>
<path fill="#fff8ce" stroke="#000000" stroke-dasharray="5,2" d="M282.2514,-70.2679C282.2514,-70.2679 530.4458,-70.2679 530.4458,-70.2679 536.4458,-70.2679 542.4458,-76.2679 542.4458,-82.2679 542.4458,-82.2679 542.4458,-107.8679 542.4458,-107.8679 542.4458,-113.8679 536.4458,-119.8679 530.4458,-119.8679 530.4458,-119.8679 282.2514,-119.8679 282.2514,-119.8679 276.2514,-119.8679 270.2514,-113.8679 270.2514,-107.8679 270.2514,-107.8679 270.2514,-82.2679 270.2514,-82.2679 270.2514,-76.2679 276.2514,-70.2679 282.2514,-70.2679"/>
<text text-anchor="middle" x="406.3486" y="-103.2679" font-family="Times,serif" font-size="14.00" fill="#000000">aqara_temp2</text>
<polyline fill="none" stroke="#000000" stroke-dasharray="5,2" points="270.2514,-95.0679 542.4458,-95.0679 "/>
<text text-anchor="middle" x="406.3486" y="-78.4679" font-family="Times,serif" font-size="14.00" fill="#000000">Xiaomi Aqara temp, hum and pressure sensor</text>
</g>
<!-- 0x00158d000465f8c7&#45;&gt;0x00124b000a52ce9c -->
<g id="edge7" class="edge">
<title>0x00158d000465f8c7-&gt;0x00124b000a52ce9c</title>
<path fill="none" stroke="#994444" stroke-width=".5" d="M409.4957,-119.9793C414.732,-150.4698 428.2171,-201.3795 461.7776,-228.4902 501.6949,-260.736 526.1941,-241.4671 578.6303,-250.1566"/>
<polygon fill="#994444" stroke="#994444" stroke-width=".5" points="578.2726,-253.6524 588.7565,-252.1232 579.6072,-246.7808 578.2726,-253.6524"/>
<text text-anchor="middle" x="458.476" y="-235.5647" font-family="Times,serif" font-size="14.00" fill="#000000">62</text>
</g>
<!-- 0x00158d0004511eb2 -->
<g id="node10" class="node">
<title>0x00158d0004511eb2</title>
<path fill="#fff8ce" stroke="#000000" stroke-dasharray="5,2" d="M476.9776,-175.6902C476.9776,-175.6902 650.5324,-175.6902 650.5324,-175.6902 656.5324,-175.6902 662.5324,-181.6902 662.5324,-187.6902 662.5324,-187.6902 662.5324,-213.2902 662.5324,-213.2902 662.5324,-219.2902 656.5324,-225.2902 650.5324,-225.2902 650.5324,-225.2902 476.9776,-225.2902 476.9776,-225.2902 470.9776,-225.2902 464.9776,-219.2902 464.9776,-213.2902 464.9776,-213.2902 464.9776,-187.6902 464.9776,-187.6902 464.9776,-181.6902 470.9776,-175.6902 476.9776,-175.6902"/>
<text text-anchor="middle" x="563.755" y="-208.6902" font-family="Times,serif" font-size="14.00" fill="#000000">aqara_motion2</text>
<polyline fill="none" stroke="#000000" stroke-dasharray="5,2" points="464.9776,-200.4902 662.5324,-200.4902 "/>
<text text-anchor="middle" x="563.755" y="-183.8902" font-family="Times,serif" font-size="14.00" fill="#000000">Xiaomi Aqara movement sensor</text>
</g>
<!-- 0x00158d0004511eb2&#45;&gt;0x00124b0018e2f44a -->
<g id="edge8" class="edge">
<title>0x00158d0004511eb2-&gt;0x00124b0018e2f44a</title>
<path fill="none" stroke="#994444" d="M574.5925,-225.3426C577.6215,-233.294 580.5791,-242.2284 582.3975,-250.6794 586.8456,-271.3509 582.3835,-277.252 585.6416,-298.1441 591.5605,-336.0988 602.9078,-378.998 610.7397,-406.3169"/>
<polygon fill="#994444" stroke="#994444" points="607.3971,-407.3569 613.5507,-415.9815 614.1186,-405.4019 607.3971,-407.3569"/>
<text text-anchor="middle" x="582.7547" y="-325.4544" font-family="Times,serif" font-size="14.00" fill="#000000">84</text>
</g>
<!-- 0x00158d0004855665 -->
<g id="node11" class="node">
<title>0x00158d0004855665</title>
<path fill="#fff8ce" stroke="#000000" stroke-dasharray="5,2" d="M683.5096,-146.8544C683.5096,-146.8544 931.704,-146.8544 931.704,-146.8544 937.704,-146.8544 943.704,-152.8544 943.704,-158.8544 943.704,-158.8544 943.704,-184.4544 943.704,-184.4544 943.704,-190.4544 937.704,-196.4544 931.704,-196.4544 931.704,-196.4544 683.5096,-196.4544 683.5096,-196.4544 677.5096,-196.4544 671.5096,-190.4544 671.5096,-184.4544 671.5096,-184.4544 671.5096,-158.8544 671.5096,-158.8544 671.5096,-152.8544 677.5096,-146.8544 683.5096,-146.8544"/>
<text text-anchor="middle" x="807.6068" y="-179.8544" font-family="Times,serif" font-size="14.00" fill="#000000">aqara_temp3</text>
<polyline fill="none" stroke="#000000" stroke-dasharray="5,2" points="671.5096,-171.6544 943.704,-171.6544 "/>
<text text-anchor="middle" x="807.6068" y="-155.0544" font-family="Times,serif" font-size="14.00" fill="#000000">Xiaomi Aqara temp, hum and pressure sensor</text>
</g>
<!-- 0x00158d0004855665&#45;&gt;0x00124b000a52ce9c -->
<g id="edge9" class="edge">
<title>0x00158d0004855665-&gt;0x00124b000a52ce9c</title>
<path fill="none" stroke="#994444" d="M769.6284,-196.5075C749.576,-209.6298 724.7995,-225.8436 703.6044,-239.7137"/>
<polygon fill="#994444" stroke="#994444" points="701.5205,-236.8945 695.0695,-245.2989 705.3536,-242.7518 701.5205,-236.8945"/>
<text text-anchor="middle" x="725.251" y="-225.1673" font-family="Times,serif" font-size="14.00" fill="#000000">72</text>
</g>
<!-- 0x00158d00044fcb68 -->
<g id="node12" class="node">
<title>0x00158d00044fcb68</title>
<path fill="#fff8ce" stroke="#000000" stroke-dasharray="5,2" d="M12.392,-358.675C12.392,-358.675 255.5604,-358.675 255.5604,-358.675 261.5604,-358.675 267.5604,-364.675 267.5604,-370.675 267.5604,-370.675 267.5604,-396.275 267.5604,-396.275 267.5604,-402.275 261.5604,-408.275 255.5604,-408.275 255.5604,-408.275 12.392,-408.275 12.392,-408.275 6.392,-408.275 .392,-402.275 .392,-396.275 .392,-396.275 .392,-370.675 .392,-370.675 .392,-364.675 6.392,-358.675 12.392,-358.675"/>
<text text-anchor="middle" x="133.9762" y="-391.675" font-family="Times,serif" font-size="14.00" fill="#000000">aqara_door2</text>
<polyline fill="none" stroke="#000000" stroke-dasharray="5,2" points=".392,-383.475 267.5604,-383.475 "/>
<text text-anchor="middle" x="133.9762" y="-366.875" font-family="Times,serif" font-size="14.00" fill="#000000">Xiaomi Mijia door &amp; window contact sensor</text>
</g>
<!-- 0x00158d00044fcb68&#45;&gt;0x00124b0009ffadc4 -->
<g id="edge10" class="edge">
<title>0x00158d00044fcb68-&gt;0x00124b0009ffadc4</title>
<path fill="none" stroke="#994444" stroke-width=".5" d="M267.7296,-394.3062C299.3704,-396.8684 332.1031,-399.5191 360.3658,-401.8077"/>
<polygon fill="#994444" stroke="#994444" stroke-width=".5" points="360.316,-405.3151 370.5659,-402.6337 360.8811,-398.3379 360.316,-405.3151"/>
<text text-anchor="middle" x="311.9794" y="-402.6563" font-family="Times,serif" font-size="14.00" fill="#000000">21</text>
</g>
<!-- 0x00158d00042d7358 -->
<g id="node13" class="node">
<title>0x00158d00042d7358</title>
<path fill="#fff8ce" stroke="#000000" stroke-dasharray="5,2" d="M751.4028,-493.0777C751.4028,-493.0777 942.4534,-493.0777 942.4534,-493.0777 948.4534,-493.0777 954.4534,-499.0777 954.4534,-505.0777 954.4534,-505.0777 954.4534,-530.6777 954.4534,-530.6777 954.4534,-536.6777 948.4534,-542.6777 942.4534,-542.6777 942.4534,-542.6777 751.4028,-542.6777 751.4028,-542.6777 745.4028,-542.6777 739.4028,-536.6777 739.4028,-530.6777 739.4028,-530.6777 739.4028,-505.0777 739.4028,-505.0777 739.4028,-499.0777 745.4028,-493.0777 751.4028,-493.0777"/>
<text text-anchor="middle" x="846.9281" y="-526.0777" font-family="Times,serif" font-size="14.00" fill="#000000">aqara_cube</text>
<polyline fill="none" stroke="#000000" stroke-dasharray="5,2" points="739.4028,-517.8777 954.4534,-517.8777 "/>
<text text-anchor="middle" x="846.9281" y="-501.2777" font-family="Times,serif" font-size="14.00" fill="#000000">Xiaomi Mi/Aqara smart home cube</text>
</g>
<!-- 0x00158d00042d7358&#45;&gt;0x00124b0018e2f44a -->
<g id="edge11" class="edge">
<title>0x00158d00042d7358-&gt;0x00124b0018e2f44a</title>
<path fill="none" stroke="#994444" d="M779.1955,-493.0195C744.4888,-480.282 702.8978,-465.0179 670.8099,-453.2414"/>
<polygon fill="#994444" stroke="#994444" points="671.7684,-449.865 661.1748,-449.7053 669.3566,-456.4364 671.7684,-449.865"/>
<text text-anchor="middle" x="713.0717" y="-475.5208" font-family="Times,serif" font-size="14.00" fill="#000000">83</text>
</g>
<!-- 0x00158d000418aba2 -->
<g id="node14" class="node">
<title>0x00158d000418aba2</title>
<path fill="#fff8ce" stroke="#000000" stroke-dasharray="5,2" d="M702.0511,-581.6537C702.0511,-581.6537 892.7405,-581.6537 892.7405,-581.6537 898.7405,-581.6537 904.7405,-587.6537 904.7405,-593.6537 904.7405,-593.6537 904.7405,-619.2537 904.7405,-619.2537 904.7405,-625.2537 898.7405,-631.2537 892.7405,-631.2537 892.7405,-631.2537 702.0511,-631.2537 702.0511,-631.2537 696.0511,-631.2537 690.0511,-625.2537 690.0511,-619.2537 690.0511,-619.2537 690.0511,-593.6537 690.0511,-593.6537 690.0511,-587.6537 696.0511,-581.6537 702.0511,-581.6537"/>
<text text-anchor="middle" x="797.3958" y="-614.6537" font-family="Times,serif" font-size="14.00" fill="#000000">mijia_temp</text>
<polyline fill="none" stroke="#000000" stroke-dasharray="5,2" points="690.0511,-606.4537 904.7405,-606.4537 "/>
<text text-anchor="middle" x="797.3958" y="-589.8537" font-family="Times,serif" font-size="14.00" fill="#000000">Xiaomi Mijia temp and hum sensor</text>
</g>
<!-- 0x00158d000418aba2&#45;&gt;0x00124b0018e2f44a -->
<g id="edge12" class="edge">
<title>0x00158d000418aba2-&gt;0x00124b0018e2f44a</title>
<path fill="none" stroke="#994444" stroke-width=".5" d="M768.6515,-581.5866C757.6882,-571.2281 745.5843,-558.6476 736.2028,-545.8777 719.4792,-523.114 726.1608,-510.1988 707.0377,-489.4103 695.5225,-476.8922 680.5443,-466.1083 666.2232,-457.4819"/>
<polygon fill="#994444" stroke="#994444" stroke-width=".5" points="667.8365,-454.3718 657.428,-452.3934 664.3309,-460.4308 667.8365,-454.3718"/>
<text text-anchor="middle" x="714.5791" y="-518.2635" font-family="Times,serif" font-size="14.00" fill="#000000">61</text>
</g>
<!-- 0x04cf8cdf3c787fc8 -->
<g id="node15" class="node">
<title>0x04cf8cdf3c787fc8</title>
<path fill="#fff8ce" stroke="#000000" stroke-dasharray="5,2" d="M603.5099,-645.4329C603.5099,-645.4329 791.4917,-645.4329 791.4917,-645.4329 797.4917,-645.4329 803.4917,-651.4329 803.4917,-657.4329 803.4917,-657.4329 803.4917,-683.0329 803.4917,-683.0329 803.4917,-689.0329 797.4917,-695.0329 791.4917,-695.0329 791.4917,-695.0329 603.5099,-695.0329 603.5099,-695.0329 597.5099,-695.0329 591.5099,-689.0329 591.5099,-683.0329 591.5099,-683.0329 591.5099,-657.4329 591.5099,-657.4329 591.5099,-651.4329 597.5099,-645.4329 603.5099,-645.4329"/>
<text text-anchor="middle" x="697.5008" y="-678.4329" font-family="Times,serif" font-size="14.00" fill="#000000">mijia_light</text>
<polyline fill="none" stroke="#000000" stroke-dasharray="5,2" points="591.5099,-670.2329 803.4917,-670.2329 "/>
<text text-anchor="middle" x="697.5008" y="-653.6329" font-family="Times,serif" font-size="14.00" fill="#000000">Xiaomi Mijia light intensity sensor</text>
</g>
<!-- 0x04cf8cdf3c787fc8&#45;&gt;0x00124b0018e2f44a -->
<g id="edge13" class="edge">
<title>0x04cf8cdf3c787fc8-&gt;0x00124b0018e2f44a</title>
<path fill="none" stroke="#994444" d="M689.1149,-645.4171C688.1781,-641.7774 687.3742,-638.0451 686.8511,-634.4537 683.2634,-609.8247 680.1117,-602.4127 686.8511,-578.4537 691.5111,-561.887 702.3777,-561.9769 707.0377,-545.4103 713.777,-521.4512 719.086,-511.1886 707.0377,-489.4103 698.8039,-474.5272 684.6869,-463.1226 670.1456,-454.6549"/>
<polygon fill="#994444" stroke="#994444" points="671.5469,-451.4338 661.0855,-449.7572 668.2181,-457.5916 671.5469,-451.4338"/>
<text text-anchor="middle" x="689.9671" y="-566.1078" font-family="Times,serif" font-size="14.00" fill="#000000">35</text>
</g>
<!-- 0x00158d000452da39 -->
<g id="node16" class="node">
<title>0x00158d000452da39</title>
<path fill="#fff8ce" stroke="#000000" stroke-dasharray="5,2" d="M878.081,-207.5664C878.081,-207.5664 1121.2494,-207.5664 1121.2494,-207.5664 1127.2494,-207.5664 1133.2494,-213.5664 1133.2494,-219.5664 1133.2494,-219.5664 1133.2494,-245.1664 1133.2494,-245.1664 1133.2494,-251.1664 1127.2494,-257.1664 1121.2494,-257.1664 1121.2494,-257.1664 878.081,-257.1664 878.081,-257.1664 872.081,-257.1664 866.081,-251.1664 866.081,-245.1664 866.081,-245.1664 866.081,-219.5664 866.081,-219.5664 866.081,-213.5664 872.081,-207.5664 878.081,-207.5664"/>
<text text-anchor="middle" x="999.6652" y="-240.5664" font-family="Times,serif" font-size="14.00" fill="#000000">aqara_door3</text>
<polyline fill="none" stroke="#000000" stroke-dasharray="5,2" points="866.081,-232.3664 1133.2494,-232.3664 "/>
<text text-anchor="middle" x="999.6652" y="-215.7664" font-family="Times,serif" font-size="14.00" fill="#000000">Xiaomi Mijia door &amp; window contact sensor</text>
</g>
<!-- 0x00158d000452da39&#45;&gt;0x00124b000a52ce9c -->
<g id="edge14" class="edge">
<title>0x00158d000452da39-&gt;0x00124b000a52ce9c</title>
<path fill="none" stroke="#994444" stroke-width=".5" d="M865.75,-247.1346C821.6514,-251.9978 774.079,-257.244 735.5118,-261.4972"/>
<polygon fill="#994444" stroke="#994444" stroke-width=".5" points="734.9532,-258.0375 725.3971,-262.6127 735.7205,-264.9953 734.9532,-258.0375"/>
<text text-anchor="middle" x="788.4358" y="-259.0888" font-family="Times,serif" font-size="14.00" fill="#000000">36</text>
</g>
<!-- 0x04cf8cdf3c7922b6 -->
<g id="node17" class="node">
<title>0x04cf8cdf3c7922b6</title>
<path fill="#fff8ce" stroke="#000000" stroke-dasharray="5,2" d="M694.7904,-.3364C694.7904,-.3364 890.8978,-.3364 890.8978,-.3364 896.8978,-.3364 902.8978,-6.3364 902.8978,-12.3364 902.8978,-12.3364 902.8978,-37.9364 902.8978,-37.9364 902.8978,-43.9364 896.8978,-49.9364 890.8978,-49.9364 890.8978,-49.9364 694.7904,-49.9364 694.7904,-49.9364 688.7904,-49.9364 682.7904,-43.9364 682.7904,-37.9364 682.7904,-37.9364 682.7904,-12.3364 682.7904,-12.3364 682.7904,-6.3364 688.7904,-.3364 694.7904,-.3364"/>
<text text-anchor="middle" x="792.8441" y="-33.3364" font-family="Times,serif" font-size="14.00" fill="#000000">aqara_opple</text>
<polyline fill="none" stroke="#000000" stroke-dasharray="5,2" points="682.7904,-25.1364 902.8978,-25.1364 "/>
<text text-anchor="middle" x="792.8441" y="-8.5364" font-family="Times,serif" font-size="14.00" fill="#000000">Xiaomi Aqara Opple switch 3 bands</text>
</g>
<!-- 0x04cf8cdf3c7922b6&#45;&gt;0x00124b000a52ce9c -->
<g id="edge15" class="edge">
<title>0x04cf8cdf3c7922b6-&gt;0x00124b000a52ce9c</title>
<path fill="none" stroke="#994444" d="M753.4724,-49.9416C724.094,-70.916 686.0885,-103.8701 668.3096,-143.6544 664.462,-152.2643 666.8363,-219.1245 665.7324,-228.4902 665.4725,-230.6951 665.1547,-232.9565 664.7961,-235.2309"/>
<polygon fill="#994444" stroke="#994444" points="661.3377,-234.688 663.0162,-245.1491 668.2276,-235.9246 661.3377,-234.688"/>
<text text-anchor="middle" x="661.304" y="-147.867" font-family="Times,serif" font-size="14.00" fill="#000000">87</text>
</g>
<!-- 0x00158d0003d409c7 -->
<g id="node18" class="node">
<title>0x00158d0003d409c7</title>
<path fill="#fff8ce" stroke="#000000" stroke-dasharray="5,2" d="M133.3246,-521.0683C133.3246,-521.0683 298.3254,-521.0683 298.3254,-521.0683 304.3254,-521.0683 310.3254,-527.0683 310.3254,-533.0683 310.3254,-533.0683 310.3254,-558.6683 310.3254,-558.6683 310.3254,-564.6683 304.3254,-570.6683 298.3254,-570.6683 298.3254,-570.6683 133.3246,-570.6683 133.3246,-570.6683 127.3246,-570.6683 121.3246,-564.6683 121.3246,-558.6683 121.3246,-558.6683 121.3246,-533.0683 121.3246,-533.0683 121.3246,-527.0683 127.3246,-521.0683 133.3246,-521.0683"/>
<text text-anchor="middle" x="215.825" y="-554.0683" font-family="Times,serif" font-size="14.00" fill="#000000">aqara_vibration</text>
<polyline fill="none" stroke="#000000" stroke-dasharray="5,2" points="121.3246,-545.8683 310.3254,-545.8683 "/>
<text text-anchor="middle" x="215.825" y="-529.2683" font-family="Times,serif" font-size="14.00" fill="#000000">Xiaomi Aqara vibration sensor</text>
</g>
<!-- 0x00158d0003d409c7&#45;&gt;0x00124b0009ffadc4 -->
<g id="edge16" class="edge">
<title>0x00158d0003d409c7-&gt;0x00124b0009ffadc4</title>
<path fill="none" stroke="#994444" stroke-width=".5" d="M256.2261,-520.932C293.7777,-497.7545 349.7915,-463.1817 389.8888,-438.4329"/>
<polygon fill="#994444" stroke="#994444" stroke-width=".5" points="391.7733,-441.3828 398.4446,-433.1521 388.0966,-435.4261 391.7733,-441.3828"/>
<text text-anchor="middle" x="320.1073" y="-481.3828" font-family="Times,serif" font-size="14.00" fill="#000000">21</text>
</g>
</g>
</svg>